<mxfile host="app.diagrams.net" modified="2024-05-23T17:42:45.146Z" agent="Mozilla/5.0 (Windows NT 10.0; Win64; x64) AppleWebKit/537.36 (KHTML, like Gecko) Chrome/124.0.0.0 Safari/537.36" etag="D9da26KvfnkPCJuc8XIx" version="24.4.6" type="device">
  <diagram name="Page-1" id="QuyegMANapCjbsU2cGrZ">
    <mxGraphModel dx="2261" dy="746" grid="1" gridSize="10" guides="1" tooltips="1" connect="1" arrows="1" fold="1" page="1" pageScale="1" pageWidth="827" pageHeight="1169" math="0" shadow="0">
      <root>
        <mxCell id="0" />
        <mxCell id="1" parent="0" />
        <mxCell id="cJ9EGDI11I5kfUDZvFuY-19" style="edgeStyle=orthogonalEdgeStyle;rounded=0;orthogonalLoop=1;jettySize=auto;html=1;entryX=0.5;entryY=0;entryDx=0;entryDy=0;" edge="1" parent="1" source="cJ9EGDI11I5kfUDZvFuY-1" target="cJ9EGDI11I5kfUDZvFuY-10">
          <mxGeometry relative="1" as="geometry" />
        </mxCell>
        <mxCell id="cJ9EGDI11I5kfUDZvFuY-1" value="" style="rounded=0;whiteSpace=wrap;html=1;" vertex="1" parent="1">
          <mxGeometry x="80" y="160" width="600" height="400" as="geometry" />
        </mxCell>
        <mxCell id="cJ9EGDI11I5kfUDZvFuY-2" value="" style="rounded=0;whiteSpace=wrap;html=1;" vertex="1" parent="1">
          <mxGeometry x="80" y="160" width="600" height="30" as="geometry" />
        </mxCell>
        <mxCell id="cJ9EGDI11I5kfUDZvFuY-3" value="" style="rounded=1;whiteSpace=wrap;html=1;" vertex="1" parent="1">
          <mxGeometry x="650" y="165" width="20" height="20" as="geometry" />
        </mxCell>
        <mxCell id="cJ9EGDI11I5kfUDZvFuY-4" value="" style="rounded=1;whiteSpace=wrap;html=1;" vertex="1" parent="1">
          <mxGeometry x="620" y="165" width="20" height="20" as="geometry" />
        </mxCell>
        <mxCell id="cJ9EGDI11I5kfUDZvFuY-5" value="" style="rounded=1;whiteSpace=wrap;html=1;" vertex="1" parent="1">
          <mxGeometry x="590" y="165" width="20" height="20" as="geometry" />
        </mxCell>
        <mxCell id="cJ9EGDI11I5kfUDZvFuY-6" value="LOGO" style="rounded=0;whiteSpace=wrap;html=1;" vertex="1" parent="1">
          <mxGeometry x="305" y="270" width="150" height="150" as="geometry" />
        </mxCell>
        <mxCell id="cJ9EGDI11I5kfUDZvFuY-7" value="Начать" style="rounded=1;whiteSpace=wrap;html=1;fillColor=#dae8fc;strokeColor=#6c8ebf;" vertex="1" parent="1">
          <mxGeometry x="327.5" y="440" width="105" height="30" as="geometry" />
        </mxCell>
        <mxCell id="cJ9EGDI11I5kfUDZvFuY-31" style="edgeStyle=orthogonalEdgeStyle;rounded=0;orthogonalLoop=1;jettySize=auto;html=1;entryX=0;entryY=0.5;entryDx=0;entryDy=0;" edge="1" parent="1" source="cJ9EGDI11I5kfUDZvFuY-9" target="cJ9EGDI11I5kfUDZvFuY-22">
          <mxGeometry relative="1" as="geometry" />
        </mxCell>
        <mxCell id="cJ9EGDI11I5kfUDZvFuY-62" style="edgeStyle=orthogonalEdgeStyle;rounded=0;orthogonalLoop=1;jettySize=auto;html=1;entryX=0.5;entryY=0;entryDx=0;entryDy=0;" edge="1" parent="1" source="cJ9EGDI11I5kfUDZvFuY-9" target="cJ9EGDI11I5kfUDZvFuY-49">
          <mxGeometry relative="1" as="geometry" />
        </mxCell>
        <mxCell id="cJ9EGDI11I5kfUDZvFuY-9" value="" style="rounded=0;whiteSpace=wrap;html=1;" vertex="1" parent="1">
          <mxGeometry x="80" y="640" width="600" height="400" as="geometry" />
        </mxCell>
        <mxCell id="cJ9EGDI11I5kfUDZvFuY-10" value="" style="rounded=0;whiteSpace=wrap;html=1;" vertex="1" parent="1">
          <mxGeometry x="80" y="640" width="600" height="30" as="geometry" />
        </mxCell>
        <mxCell id="cJ9EGDI11I5kfUDZvFuY-11" value="" style="rounded=1;whiteSpace=wrap;html=1;" vertex="1" parent="1">
          <mxGeometry x="650" y="645" width="20" height="20" as="geometry" />
        </mxCell>
        <mxCell id="cJ9EGDI11I5kfUDZvFuY-12" value="" style="rounded=1;whiteSpace=wrap;html=1;" vertex="1" parent="1">
          <mxGeometry x="620" y="645" width="20" height="20" as="geometry" />
        </mxCell>
        <mxCell id="cJ9EGDI11I5kfUDZvFuY-13" value="" style="rounded=1;whiteSpace=wrap;html=1;" vertex="1" parent="1">
          <mxGeometry x="590" y="645" width="20" height="20" as="geometry" />
        </mxCell>
        <mxCell id="cJ9EGDI11I5kfUDZvFuY-15" value="Использовать камеру" style="rounded=1;whiteSpace=wrap;html=1;fillColor=#dae8fc;strokeColor=#6c8ebf;" vertex="1" parent="1">
          <mxGeometry x="327.5" y="755" width="105" height="30" as="geometry" />
        </mxCell>
        <mxCell id="cJ9EGDI11I5kfUDZvFuY-18" value="action: click &quot;Начать&quot;" style="text;html=1;align=center;verticalAlign=middle;whiteSpace=wrap;rounded=0;" vertex="1" parent="1">
          <mxGeometry x="370" y="585" width="156" height="30" as="geometry" />
        </mxCell>
        <mxCell id="cJ9EGDI11I5kfUDZvFuY-20" value="Загрузить видео" style="rounded=1;whiteSpace=wrap;html=1;" vertex="1" parent="1">
          <mxGeometry x="327.5" y="805" width="105" height="30" as="geometry" />
        </mxCell>
        <mxCell id="cJ9EGDI11I5kfUDZvFuY-21" value="Назад" style="rounded=1;whiteSpace=wrap;html=1;fillColor=#f8cecc;strokeColor=#b85450;" vertex="1" parent="1">
          <mxGeometry x="327.5" y="860" width="105" height="30" as="geometry" />
        </mxCell>
        <mxCell id="cJ9EGDI11I5kfUDZvFuY-46" style="edgeStyle=orthogonalEdgeStyle;rounded=0;orthogonalLoop=1;jettySize=auto;html=1;" edge="1" parent="1" source="cJ9EGDI11I5kfUDZvFuY-22" target="cJ9EGDI11I5kfUDZvFuY-9">
          <mxGeometry relative="1" as="geometry">
            <Array as="points">
              <mxPoint x="790" y="990" />
              <mxPoint x="790" y="990" />
            </Array>
          </mxGeometry>
        </mxCell>
        <mxCell id="cJ9EGDI11I5kfUDZvFuY-22" value="" style="rounded=0;whiteSpace=wrap;html=1;" vertex="1" parent="1">
          <mxGeometry x="880" y="640" width="600" height="400" as="geometry" />
        </mxCell>
        <mxCell id="cJ9EGDI11I5kfUDZvFuY-23" value="" style="rounded=0;whiteSpace=wrap;html=1;" vertex="1" parent="1">
          <mxGeometry x="880" y="640" width="600" height="30" as="geometry" />
        </mxCell>
        <mxCell id="cJ9EGDI11I5kfUDZvFuY-24" value="" style="rounded=1;whiteSpace=wrap;html=1;" vertex="1" parent="1">
          <mxGeometry x="1450" y="645" width="20" height="20" as="geometry" />
        </mxCell>
        <mxCell id="cJ9EGDI11I5kfUDZvFuY-25" value="" style="rounded=1;whiteSpace=wrap;html=1;" vertex="1" parent="1">
          <mxGeometry x="1420" y="645" width="20" height="20" as="geometry" />
        </mxCell>
        <mxCell id="cJ9EGDI11I5kfUDZvFuY-26" value="" style="rounded=1;whiteSpace=wrap;html=1;" vertex="1" parent="1">
          <mxGeometry x="1390" y="645" width="20" height="20" as="geometry" />
        </mxCell>
        <mxCell id="cJ9EGDI11I5kfUDZvFuY-30" value="Назад" style="rounded=1;whiteSpace=wrap;html=1;fillColor=#f8cecc;strokeColor=#b85450;" vertex="1" parent="1">
          <mxGeometry x="1355" y="990" width="105" height="30" as="geometry" />
        </mxCell>
        <mxCell id="cJ9EGDI11I5kfUDZvFuY-32" value="action: click &quot;Использовать камеру&quot;" style="text;html=1;align=center;verticalAlign=middle;whiteSpace=wrap;rounded=0;" vertex="1" parent="1">
          <mxGeometry x="700" y="800" width="156" height="30" as="geometry" />
        </mxCell>
        <mxCell id="cJ9EGDI11I5kfUDZvFuY-33" value="" style="rounded=1;whiteSpace=wrap;html=1;" vertex="1" parent="1">
          <mxGeometry x="1270" y="690" width="190" height="190" as="geometry" />
        </mxCell>
        <mxCell id="cJ9EGDI11I5kfUDZvFuY-34" value="" style="whiteSpace=wrap;html=1;aspect=fixed;" vertex="1" parent="1">
          <mxGeometry x="1330" y="740" width="80" height="80" as="geometry" />
        </mxCell>
        <mxCell id="cJ9EGDI11I5kfUDZvFuY-35" value="" style="ellipse;whiteSpace=wrap;html=1;aspect=fixed;" vertex="1" parent="1">
          <mxGeometry x="1345" y="755" width="50" height="50" as="geometry" />
        </mxCell>
        <mxCell id="cJ9EGDI11I5kfUDZvFuY-36" value="" style="rounded=0;whiteSpace=wrap;html=1;" vertex="1" parent="1">
          <mxGeometry x="1345" y="730" width="50" height="10" as="geometry" />
        </mxCell>
        <mxCell id="cJ9EGDI11I5kfUDZvFuY-39" value="" style="rounded=0;whiteSpace=wrap;html=1;" vertex="1" parent="1">
          <mxGeometry x="905" y="690" width="265" height="110" as="geometry" />
        </mxCell>
        <mxCell id="cJ9EGDI11I5kfUDZvFuY-43" value="Диаграмма (график)" style="rounded=0;whiteSpace=wrap;html=1;" vertex="1" parent="1">
          <mxGeometry x="905" y="715" width="170" height="85" as="geometry" />
        </mxCell>
        <mxCell id="cJ9EGDI11I5kfUDZvFuY-44" value="Описание состояния" style="text;html=1;align=left;verticalAlign=middle;whiteSpace=wrap;rounded=0;" vertex="1" parent="1">
          <mxGeometry x="905" y="690" width="175" height="30" as="geometry" />
        </mxCell>
        <mxCell id="cJ9EGDI11I5kfUDZvFuY-45" value="Статус: _____&lt;div&gt;EAR: _____&lt;/div&gt;&lt;div&gt;MAR: ______&lt;/div&gt;" style="text;html=1;align=right;verticalAlign=middle;whiteSpace=wrap;rounded=0;" vertex="1" parent="1">
          <mxGeometry x="1080" y="690" width="90" height="50" as="geometry" />
        </mxCell>
        <mxCell id="cJ9EGDI11I5kfUDZvFuY-47" value="action: click &quot;Назад&quot;" style="text;html=1;align=center;verticalAlign=middle;whiteSpace=wrap;rounded=0;" vertex="1" parent="1">
          <mxGeometry x="700" y="950" width="156" height="30" as="geometry" />
        </mxCell>
        <mxCell id="cJ9EGDI11I5kfUDZvFuY-75" style="edgeStyle=orthogonalEdgeStyle;rounded=0;orthogonalLoop=1;jettySize=auto;html=1;entryX=0.868;entryY=1;entryDx=0;entryDy=0;entryPerimeter=0;exitX=0.868;exitY=-0.067;exitDx=0;exitDy=0;exitPerimeter=0;" edge="1" parent="1" source="cJ9EGDI11I5kfUDZvFuY-49" target="cJ9EGDI11I5kfUDZvFuY-9">
          <mxGeometry relative="1" as="geometry">
            <Array as="points" />
          </mxGeometry>
        </mxCell>
        <mxCell id="cJ9EGDI11I5kfUDZvFuY-48" value="" style="rounded=0;whiteSpace=wrap;html=1;" vertex="1" parent="1">
          <mxGeometry x="80" y="1120" width="600" height="400" as="geometry" />
        </mxCell>
        <mxCell id="cJ9EGDI11I5kfUDZvFuY-49" value="" style="rounded=0;whiteSpace=wrap;html=1;" vertex="1" parent="1">
          <mxGeometry x="80" y="1120" width="600" height="30" as="geometry" />
        </mxCell>
        <mxCell id="cJ9EGDI11I5kfUDZvFuY-50" value="" style="rounded=1;whiteSpace=wrap;html=1;" vertex="1" parent="1">
          <mxGeometry x="650" y="1125" width="20" height="20" as="geometry" />
        </mxCell>
        <mxCell id="cJ9EGDI11I5kfUDZvFuY-51" value="" style="rounded=1;whiteSpace=wrap;html=1;" vertex="1" parent="1">
          <mxGeometry x="620" y="1125" width="20" height="20" as="geometry" />
        </mxCell>
        <mxCell id="cJ9EGDI11I5kfUDZvFuY-52" value="" style="rounded=1;whiteSpace=wrap;html=1;" vertex="1" parent="1">
          <mxGeometry x="590" y="1125" width="20" height="20" as="geometry" />
        </mxCell>
        <mxCell id="cJ9EGDI11I5kfUDZvFuY-53" value="Назад" style="rounded=1;whiteSpace=wrap;html=1;fillColor=#f8cecc;strokeColor=#b85450;" vertex="1" parent="1">
          <mxGeometry x="545" y="1460" width="105" height="30" as="geometry" />
        </mxCell>
        <mxCell id="cJ9EGDI11I5kfUDZvFuY-63" value="action: click &quot;Загрузить видео&quot;" style="text;html=1;align=center;verticalAlign=middle;whiteSpace=wrap;rounded=0;" vertex="1" parent="1">
          <mxGeometry x="349" y="1060" width="271" height="30" as="geometry" />
        </mxCell>
        <mxCell id="cJ9EGDI11I5kfUDZvFuY-68" value="" style="rounded=0;whiteSpace=wrap;html=1;" vertex="1" parent="1">
          <mxGeometry x="105" y="1180" width="265" height="110" as="geometry" />
        </mxCell>
        <mxCell id="cJ9EGDI11I5kfUDZvFuY-69" value="Диаграмма (график)" style="rounded=0;whiteSpace=wrap;html=1;" vertex="1" parent="1">
          <mxGeometry x="105" y="1205" width="170" height="85" as="geometry" />
        </mxCell>
        <mxCell id="cJ9EGDI11I5kfUDZvFuY-70" value="Статус: _____&lt;div&gt;EAR: _____&lt;/div&gt;&lt;div&gt;MAR: ______&lt;/div&gt;" style="text;html=1;align=right;verticalAlign=middle;whiteSpace=wrap;rounded=0;" vertex="1" parent="1">
          <mxGeometry x="280" y="1180" width="90" height="50" as="geometry" />
        </mxCell>
        <mxCell id="cJ9EGDI11I5kfUDZvFuY-71" value="Назад" style="rounded=1;whiteSpace=wrap;html=1;fillColor=#f8cecc;strokeColor=#b85450;" vertex="1" parent="1">
          <mxGeometry x="-255" y="1950" width="105" height="30" as="geometry" />
        </mxCell>
        <mxCell id="cJ9EGDI11I5kfUDZvFuY-72" value="Описание состояния" style="text;html=1;align=left;verticalAlign=middle;whiteSpace=wrap;rounded=0;" vertex="1" parent="1">
          <mxGeometry x="110" y="1180" width="175" height="30" as="geometry" />
        </mxCell>
        <mxCell id="cJ9EGDI11I5kfUDZvFuY-73" value="Видео на репите" style="rounded=1;whiteSpace=wrap;html=1;" vertex="1" parent="1">
          <mxGeometry x="460" y="1180" width="190" height="190" as="geometry" />
        </mxCell>
        <mxCell id="cJ9EGDI11I5kfUDZvFuY-76" value="action: click &quot;Назад&quot;" style="text;html=1;align=center;verticalAlign=middle;whiteSpace=wrap;rounded=0;" vertex="1" parent="1">
          <mxGeometry x="610" y="1070" width="156" height="30" as="geometry" />
        </mxCell>
        <mxCell id="cJ9EGDI11I5kfUDZvFuY-77" value="action: click &quot;Назад&quot;" style="text;html=1;align=center;verticalAlign=middle;whiteSpace=wrap;rounded=0;" vertex="1" parent="1">
          <mxGeometry x="560" y="585" width="156" height="30" as="geometry" />
        </mxCell>
        <mxCell id="cJ9EGDI11I5kfUDZvFuY-78" value="" style="endArrow=classic;html=1;rounded=0;entryX=0.822;entryY=1;entryDx=0;entryDy=0;entryPerimeter=0;exitX=0.82;exitY=0.033;exitDx=0;exitDy=0;exitPerimeter=0;" edge="1" parent="1" source="cJ9EGDI11I5kfUDZvFuY-10" target="cJ9EGDI11I5kfUDZvFuY-1">
          <mxGeometry width="50" height="50" relative="1" as="geometry">
            <mxPoint x="720" y="810" as="sourcePoint" />
            <mxPoint x="770" y="760" as="targetPoint" />
          </mxGeometry>
        </mxCell>
      </root>
    </mxGraphModel>
  </diagram>
</mxfile>
